<svg width="232" height="33" viewBox="0 0 232 33" fill="none" xmlns="http://www.w3.org/2000/svg">
<rect width="232" height="33" fill="url(#paint0_linear_2:11)"/>
<rect x="5" width="227" height="28" fill="#F8FBFF"/>
<path d="M12.6992 15.6602V22H9.73438V4.9375H16.2617C18.168 4.9375 19.6797 5.43359 20.7969 6.42578C21.9219 7.41797 22.4844 8.73047 22.4844 10.3633C22.4844 12.0352 21.9336 13.3359 20.832 14.2656C19.7383 15.1953 18.2031 15.6602 16.2266 15.6602H12.6992ZM12.6992 13.2812H16.2617C17.3164 13.2812 18.1211 13.0352 18.6758 12.543C19.2305 12.043 19.5078 11.3242 19.5078 10.3867C19.5078 9.46484 19.2266 8.73047 18.6641 8.18359C18.1016 7.62891 17.3281 7.34375 16.3438 7.32812H12.6992V13.2812ZM32.2461 22C32.1211 21.7578 32.0117 21.3633 31.918 20.8164C31.0117 21.7617 29.9023 22.2344 28.5898 22.2344C27.3164 22.2344 26.2773 21.8711 25.4727 21.1445C24.668 20.418 24.2656 19.5195 24.2656 18.4492C24.2656 17.0977 24.7656 16.0625 25.7656 15.3438C26.7734 14.6172 28.2109 14.2539 30.0781 14.2539H31.8242V13.4219C31.8242 12.7656 31.6406 12.2422 31.2734 11.8516C30.9062 11.4531 30.3477 11.2539 29.5977 11.2539C28.9492 11.2539 28.418 11.418 28.0039 11.7461C27.5898 12.0664 27.3828 12.4766 27.3828 12.9766H24.5352C24.5352 12.2812 24.7656 11.6328 25.2266 11.0312C25.6875 10.4219 26.3125 9.94531 27.1016 9.60156C27.8984 9.25781 28.7852 9.08594 29.7617 9.08594C31.2461 9.08594 32.4297 9.46094 33.3125 10.2109C34.1953 10.9531 34.6484 12 34.6719 13.3516V19.0703C34.6719 20.2109 34.832 21.1211 35.1523 21.8008V22H32.2461ZM29.1172 19.9492C29.6797 19.9492 30.207 19.8125 30.6992 19.5391C31.1992 19.2656 31.5742 18.8984 31.8242 18.4375V16.0469H30.2891C29.2344 16.0469 28.4414 16.2305 27.9102 16.5977C27.3789 16.9648 27.1133 17.4844 27.1133 18.1562C27.1133 18.7031 27.293 19.1406 27.6523 19.4688C28.0195 19.7891 28.5078 19.9492 29.1172 19.9492ZM44.7617 18.5547C44.7617 18.0469 44.5508 17.6602 44.1289 17.3945C43.7148 17.1289 43.0234 16.8945 42.0547 16.6914C41.0859 16.4883 40.2773 16.2305 39.6289 15.918C38.207 15.2305 37.4961 14.2344 37.4961 12.9297C37.4961 11.8359 37.957 10.9219 38.8789 10.1875C39.8008 9.45312 40.9727 9.08594 42.3945 9.08594C43.9102 9.08594 45.1328 9.46094 46.0625 10.2109C47 10.9609 47.4688 11.9336 47.4688 13.1289H44.6211C44.6211 12.582 44.418 12.1289 44.0117 11.7695C43.6055 11.4023 43.0664 11.2188 42.3945 11.2188C41.7695 11.2188 41.2578 11.3633 40.8594 11.6523C40.4688 11.9414 40.2734 12.3281 40.2734 12.8125C40.2734 13.25 40.457 13.5898 40.8242 13.832C41.1914 14.0742 41.9336 14.3203 43.0508 14.5703C44.168 14.8125 45.043 15.1055 45.6758 15.4492C46.3164 15.7852 46.7891 16.1914 47.0938 16.668C47.4062 17.1445 47.5625 17.7227 47.5625 18.4023C47.5625 19.543 47.0898 20.4688 46.1445 21.1797C45.1992 21.8828 43.9609 22.2344 42.4297 22.2344C41.3906 22.2344 40.4648 22.0469 39.6523 21.6719C38.8398 21.2969 38.207 20.7812 37.7539 20.125C37.3008 19.4688 37.0742 18.7617 37.0742 18.0039H39.8398C39.8789 18.6758 40.1328 19.1953 40.6016 19.5625C41.0703 19.9219 41.6914 20.1016 42.4648 20.1016C43.2148 20.1016 43.7852 19.9609 44.1758 19.6797C44.5664 19.3906 44.7617 19.0156 44.7617 18.5547ZM57.1602 18.5547C57.1602 18.0469 56.9492 17.6602 56.5273 17.3945C56.1133 17.1289 55.4219 16.8945 54.4531 16.6914C53.4844 16.4883 52.6758 16.2305 52.0273 15.918C50.6055 15.2305 49.8945 14.2344 49.8945 12.9297C49.8945 11.8359 50.3555 10.9219 51.2773 10.1875C52.1992 9.45312 53.3711 9.08594 54.793 9.08594C56.3086 9.08594 57.5312 9.46094 58.4609 10.2109C59.3984 10.9609 59.8672 11.9336 59.8672 13.1289H57.0195C57.0195 12.582 56.8164 12.1289 56.4102 11.7695C56.0039 11.4023 55.4648 11.2188 54.793 11.2188C54.168 11.2188 53.6562 11.3633 53.2578 11.6523C52.8672 11.9414 52.6719 12.3281 52.6719 12.8125C52.6719 13.25 52.8555 13.5898 53.2227 13.832C53.5898 14.0742 54.332 14.3203 55.4492 14.5703C56.5664 14.8125 57.4414 15.1055 58.0742 15.4492C58.7148 15.7852 59.1875 16.1914 59.4922 16.668C59.8047 17.1445 59.9609 17.7227 59.9609 18.4023C59.9609 19.543 59.4883 20.4688 58.543 21.1797C57.5977 21.8828 56.3594 22.2344 54.8281 22.2344C53.7891 22.2344 52.8633 22.0469 52.0508 21.6719C51.2383 21.2969 50.6055 20.7812 50.1523 20.125C49.6992 19.4688 49.4727 18.7617 49.4727 18.0039H52.2383C52.2773 18.6758 52.5312 19.1953 53 19.5625C53.4688 19.9219 54.0898 20.1016 54.8633 20.1016C55.6133 20.1016 56.1836 19.9609 56.5742 19.6797C56.9648 19.3906 57.1602 19.0156 57.1602 18.5547ZM73.5898 18.0742L75.6055 9.32031H78.3828L74.9258 22H72.582L69.8633 13.293L67.1914 22H64.8477L61.3789 9.32031H64.1562L66.207 17.9805L68.8086 9.32031H70.9531L73.5898 18.0742ZM79.7539 15.543C79.7539 14.3008 80 13.1836 80.4922 12.1914C80.9844 11.1914 81.6758 10.4258 82.5664 9.89453C83.457 9.35547 84.4805 9.08594 85.6367 9.08594C87.3477 9.08594 88.7344 9.63672 89.7969 10.7383C90.8672 11.8398 91.4453 13.3008 91.5312 15.1211L91.543 15.7891C91.543 17.0391 91.3008 18.1562 90.8164 19.1406C90.3398 20.125 89.6523 20.8867 88.7539 21.4258C87.8633 21.9648 86.832 22.2344 85.6602 22.2344C83.8711 22.2344 82.4375 21.6406 81.3594 20.4531C80.2891 19.2578 79.7539 17.668 79.7539 15.6836V15.543ZM82.6016 15.7891C82.6016 17.0938 82.8711 18.1172 83.4102 18.8594C83.9492 19.5938 84.6992 19.9609 85.6602 19.9609C86.6211 19.9609 87.3672 19.5859 87.8984 18.8359C88.4375 18.0859 88.707 16.9883 88.707 15.543C88.707 14.2617 88.4297 13.2461 87.875 12.4961C87.3281 11.7461 86.582 11.3711 85.6367 11.3711C84.707 11.3711 83.9688 11.7422 83.4219 12.4844C82.875 13.2188 82.6016 14.3203 82.6016 15.7891ZM100.59 11.9219C100.215 11.8594 99.8281 11.8281 99.4297 11.8281C98.125 11.8281 97.2461 12.3281 96.793 13.3281V22H93.9453V9.32031H96.6641L96.7344 10.7383C97.4219 9.63672 98.375 9.08594 99.5938 9.08594C100 9.08594 100.336 9.14062 100.602 9.25L100.59 11.9219ZM101.621 15.5664C101.621 13.6133 102.074 12.0469 102.98 10.8672C103.887 9.67969 105.102 9.08594 106.625 9.08594C107.969 9.08594 109.055 9.55469 109.883 10.4922V4H112.73V22H110.152L110.012 20.6875C109.16 21.7188 108.023 22.2344 106.602 22.2344C105.117 22.2344 103.914 21.6367 102.992 20.4414C102.078 19.2461 101.621 17.6211 101.621 15.5664ZM104.469 15.8125C104.469 17.1016 104.715 18.1094 105.207 18.8359C105.707 19.5547 106.414 19.9141 107.328 19.9141C108.492 19.9141 109.344 19.3945 109.883 18.3555V12.9414C109.359 11.9258 108.516 11.418 107.352 11.418C106.43 11.418 105.719 11.7852 105.219 12.5195C104.719 13.2461 104.469 14.3438 104.469 15.8125ZM135.031 19.7852C134.414 20.5898 133.559 21.1992 132.465 21.6133C131.371 22.0273 130.129 22.2344 128.738 22.2344C127.309 22.2344 126.043 21.9102 124.941 21.2617C123.84 20.6133 122.988 19.6875 122.387 18.4844C121.793 17.2734 121.484 15.8633 121.461 14.2539V12.918C121.461 10.3398 122.078 8.32812 123.312 6.88281C124.547 5.42969 126.27 4.70312 128.48 4.70312C130.379 4.70312 131.887 5.17188 133.004 6.10938C134.121 7.04688 134.793 8.39844 135.02 10.1641H132.113C131.785 8.10938 130.594 7.08203 128.539 7.08203C127.211 7.08203 126.199 7.5625 125.504 8.52344C124.816 9.47656 124.461 10.8789 124.438 12.7305V14.043C124.438 15.8867 124.824 17.3203 125.598 18.3438C126.379 19.3594 127.461 19.8672 128.844 19.8672C130.359 19.8672 131.438 19.5234 132.078 18.8359V15.4961H128.562V13.2461H135.031V19.7852ZM143.598 22.2344C141.793 22.2344 140.328 21.668 139.203 20.5352C138.086 19.3945 137.527 17.8789 137.527 15.9883V15.6367C137.527 14.3711 137.77 13.2422 138.254 12.25C138.746 11.25 139.434 10.4727 140.316 9.91797C141.199 9.36328 142.184 9.08594 143.27 9.08594C144.996 9.08594 146.328 9.63672 147.266 10.7383C148.211 11.8398 148.684 13.3984 148.684 15.4141V16.5625H140.398C140.484 17.6094 140.832 18.4375 141.441 19.0469C142.059 19.6562 142.832 19.9609 143.762 19.9609C145.066 19.9609 146.129 19.4336 146.949 18.3789L148.484 19.8438C147.977 20.6016 147.297 21.1914 146.445 21.6133C145.602 22.0273 144.652 22.2344 143.598 22.2344ZM143.258 11.3711C142.477 11.3711 141.844 11.6445 141.359 12.1914C140.883 12.7383 140.578 13.5 140.445 14.4766H145.871V14.2656C145.809 13.3125 145.555 12.5938 145.109 12.1094C144.664 11.6172 144.047 11.3711 143.258 11.3711ZM153.547 9.32031L153.629 10.7852C154.566 9.65234 155.797 9.08594 157.32 9.08594C159.961 9.08594 161.305 10.5977 161.352 13.6211V22H158.504V13.7852C158.504 12.9805 158.328 12.3867 157.977 12.0039C157.633 11.6133 157.066 11.418 156.277 11.418C155.129 11.418 154.273 11.9375 153.711 12.9766V22H150.863V9.32031H153.547ZM169.848 22.2344C168.043 22.2344 166.578 21.668 165.453 20.5352C164.336 19.3945 163.777 17.8789 163.777 15.9883V15.6367C163.777 14.3711 164.02 13.2422 164.504 12.25C164.996 11.25 165.684 10.4727 166.566 9.91797C167.449 9.36328 168.434 9.08594 169.52 9.08594C171.246 9.08594 172.578 9.63672 173.516 10.7383C174.461 11.8398 174.934 13.3984 174.934 15.4141V16.5625H166.648C166.734 17.6094 167.082 18.4375 167.691 19.0469C168.309 19.6562 169.082 19.9609 170.012 19.9609C171.316 19.9609 172.379 19.4336 173.199 18.3789L174.734 19.8438C174.227 20.6016 173.547 21.1914 172.695 21.6133C171.852 22.0273 170.902 22.2344 169.848 22.2344ZM169.508 11.3711C168.727 11.3711 168.094 11.6445 167.609 12.1914C167.133 12.7383 166.828 13.5 166.695 14.4766H172.121V14.2656C172.059 13.3125 171.805 12.5938 171.359 12.1094C170.914 11.6172 170.297 11.3711 169.508 11.3711ZM183.793 11.9219C183.418 11.8594 183.031 11.8281 182.633 11.8281C181.328 11.8281 180.449 12.3281 179.996 13.3281V22H177.148V9.32031H179.867L179.938 10.7383C180.625 9.63672 181.578 9.08594 182.797 9.08594C183.203 9.08594 183.539 9.14062 183.805 9.25L183.793 11.9219ZM192.816 22C192.691 21.7578 192.582 21.3633 192.488 20.8164C191.582 21.7617 190.473 22.2344 189.16 22.2344C187.887 22.2344 186.848 21.8711 186.043 21.1445C185.238 20.418 184.836 19.5195 184.836 18.4492C184.836 17.0977 185.336 16.0625 186.336 15.3438C187.344 14.6172 188.781 14.2539 190.648 14.2539H192.395V13.4219C192.395 12.7656 192.211 12.2422 191.844 11.8516C191.477 11.4531 190.918 11.2539 190.168 11.2539C189.52 11.2539 188.988 11.418 188.574 11.7461C188.16 12.0664 187.953 12.4766 187.953 12.9766H185.105C185.105 12.2812 185.336 11.6328 185.797 11.0312C186.258 10.4219 186.883 9.94531 187.672 9.60156C188.469 9.25781 189.355 9.08594 190.332 9.08594C191.816 9.08594 193 9.46094 193.883 10.2109C194.766 10.9531 195.219 12 195.242 13.3516V19.0703C195.242 20.2109 195.402 21.1211 195.723 21.8008V22H192.816ZM189.688 19.9492C190.25 19.9492 190.777 19.8125 191.27 19.5391C191.77 19.2656 192.145 18.8984 192.395 18.4375V16.0469H190.859C189.805 16.0469 189.012 16.2305 188.48 16.5977C187.949 16.9648 187.684 17.4844 187.684 18.1562C187.684 18.7031 187.863 19.1406 188.223 19.4688C188.59 19.7891 189.078 19.9492 189.688 19.9492ZM201.793 6.23828V9.32031H204.031V11.4297H201.793V18.5078C201.793 18.9922 201.887 19.3438 202.074 19.5625C202.27 19.7734 202.613 19.8789 203.105 19.8789C203.434 19.8789 203.766 19.8398 204.102 19.7617V21.9648C203.453 22.1445 202.828 22.2344 202.227 22.2344C200.039 22.2344 198.945 21.0273 198.945 18.6133V11.4297H196.859V9.32031H198.945V6.23828H201.793ZM205.332 15.543C205.332 14.3008 205.578 13.1836 206.07 12.1914C206.562 11.1914 207.254 10.4258 208.145 9.89453C209.035 9.35547 210.059 9.08594 211.215 9.08594C212.926 9.08594 214.312 9.63672 215.375 10.7383C216.445 11.8398 217.023 13.3008 217.109 15.1211L217.121 15.7891C217.121 17.0391 216.879 18.1562 216.395 19.1406C215.918 20.125 215.23 20.8867 214.332 21.4258C213.441 21.9648 212.41 22.2344 211.238 22.2344C209.449 22.2344 208.016 21.6406 206.938 20.4531C205.867 19.2578 205.332 17.668 205.332 15.6836V15.543ZM208.18 15.7891C208.18 17.0938 208.449 18.1172 208.988 18.8594C209.527 19.5938 210.277 19.9609 211.238 19.9609C212.199 19.9609 212.945 19.5859 213.477 18.8359C214.016 18.0859 214.285 16.9883 214.285 15.543C214.285 14.2617 214.008 13.2461 213.453 12.4961C212.906 11.7461 212.16 11.3711 211.215 11.3711C210.285 11.3711 209.547 11.7422 209 12.4844C208.453 13.2188 208.18 14.3203 208.18 15.7891ZM226.168 11.9219C225.793 11.8594 225.406 11.8281 225.008 11.8281C223.703 11.8281 222.824 12.3281 222.371 13.3281V22H219.523V9.32031H222.242L222.312 10.7383C223 9.63672 223.953 9.08594 225.172 9.08594C225.578 9.08594 225.914 9.14062 226.18 9.25L226.168 11.9219Z" fill="black"/>
<defs>
<linearGradient id="paint0_linear_2:11" x1="0" y1="0" x2="9.20176" y2="64.6911" gradientUnits="userSpaceOnUse">
<stop stop-color="#237FFA"/>
<stop offset="1" stop-color="#E32283"/>
</linearGradient>
</defs>
</svg>
